# xmcd
#
# Track frame offsets: 
#        150
#        17715
#        40440
#        64465
#        86839
#        108703
#        129598
#        151361
#        170689
#        189166
#
# Disc length: 2783 seconds
#
# Revision: 5
# Processed by: cddbd v1.5.2PL0 Copyright (c) Steve Scherf et al.
# Submitted via: ExactAudioCopy v0.99pb5
#
DISCID=8b0add0a
DTITLE=2Pac - Nu-Mixx Klazzics
DYEAR=2003
DGENRE=Rap
TTITLE0=2 of Amerikaz Most Wanted (feat. Crooked I)
TTITLE1=How Do You Want It (feat. K-Ci and JoJo)
TTITLE2=Hail Mary (feat. The Outlawz)
TTITLE3=Life Goes On
TTITLE4=All Eyez on Me (feat. Big Syke)
TTITLE5=Heartz of Men
TTITLE6=Toss It Up (feat. Danny Boy, Aaron Hall, K-Ci and JoJo)
TTITLE7=Hit Em Up (feat. The Outlawz)
TTITLE8=Never Had a Friend Like Me
TTITLE9=Ambitionz az a Ridah
EXTD=YEAR: 2003
EXTT0=
EXTT1=
EXTT2=
EXTT3=
EXTT4=
EXTT5=
EXTT6=
EXTT7=
EXTT8=
EXTT9=
PLAYORDER=
